<?xml version="1.0" encoding="utf-8"?>
<!-- Generator: Adobe Illustrator 24.3.0, SVG Export Plug-In . SVG Version: 6.00 Build 0)  -->
<svg version="1.1" id="Layer_2" xmlns="http://www.w3.org/2000/svg" xmlns:xlink="http://www.w3.org/1999/xlink" x="0px" y="0px"
	 viewBox="0 0 780 1040" style="enable-background:new 0 0 780 1040;" xml:space="preserve">
<style type="text/css">
	.st0{fill:#C29914;}
</style>
<path class="st0" d="M407.77,227.04c-1.29-3.38-2.47-3.74-3.57-6.89c-1.48-4.2,1.1-7.2-1.22-7.11c-0.14,0.01-7.67-1.78-16.66-3.1
	c-1.48-0.22-4.22-0.4-9.7-0.77c0,0-2.95-0.2-5.87-0.35c-30.36-1.58-49.53,0.6-49.53,0.6c-18.32,3.05-33.01,3.81-48.38,13.9
	c-11.88,7.81-18.51,17.85-25.15,27.46c-2.85,4.12-5.35,8.32-6.64,14.04c-0.27,1.21-1.58,7.31-0.21,15.01
	c1.56,8.76-0.5,12.62,5.11,23.83c0,0,0,0,0,0c7.25,14.5,20.12,21.74,23.83,23.83c21.41,12.05,47.62,5.48,50.42,4.73
	c0.77,0.08,1.92,0.18,3.32,0.26c6.33,0.33,13.47-0.22,16.85-1.28c8.83-2.76,15.51-16.26,15.13-28.26
	c-0.4-12.69-8.91-30.06-25.25-31.38c-15.25-1.24-28.67,10.8-29.98,26.9c-0.31,3.85,0.1,7.57,1.11,11.04
	c-0.3,0.55-0.66,1.07-1.1,1.53c-3.12,3.3-8.64,2.62-19.66,1.28c-2-0.24-4.66-0.69-7.66-2.04c-1.7-0.77-3.03-1.62-4.09-2.3
	c-2.33-1.5-4.13-2.98-5.36-4.09c-3.64-3.27-10.09-9.1-10.72-16.85c-0.09-1.05-0.02-1.61,2.3-10.72c2.18-8.56,3.27-12.84,3.57-13.79
	c3.35-10.38,10.23-17.51,13.79-21.19c4.05-4.2,16.4-15.89,35.49-19.4c6.36-1.17,4.45,0.23,14.81-1.02
	c21.08-2.54,25.48-7.9,37.02-5.36c5.08,1.12,6.47,2.65,14.3,4.09c8.65,1.59,9.51,0.18,14.55,1.53
	c12.25,3.27,18.15,14.46,20.17,13.02C410.13,233.23,408.09,227.89,407.77,227.04z"/>
<path class="st0" d="M219.59,239.24c0,0,60.39-68.6,95.29-58.82c29.41,8.24,56.47,10.59,72.94,20c1.31,0.75,1.88,1.34,1.8,1.8
	c-0.91,4.99-61.5-14.84-107.68,8.79c-33.26,17.02-47.56,50.79-57.65,45.88C219.74,254.67,219.27,246.14,219.59,239.24z"/>
<path class="st0" d="M228.28,196.91c-0.37-2.67,6.25-3.53,13.28-10.21c6.04-5.75,6.87-10.54,10.21-16.34
	c6.98-12.09,20.7-21.26,33.8-23.91c10.83-2.2,19.3,0.51,35.65,5.53c7.3,2.24,19.18,6.64,18.72,8.85c-0.26,1.24-4.31,1.43-13.62,1.36
	c-23.62-0.17-24.18-1.74-30.98-1.02c-11.93,1.27-27.61,8.05-36.43,20.43c-7.45,10.46-7.31,15.8-14.3,18.38
	C237.59,202.57,228.69,199.92,228.28,196.91z"/>
<path class="st0" d="M415.85,257.51c2.92-6.56-39.96-27.45-45.62-24.51c-1.97,1.02-3.31,2.52-3.31,2.52
	c-1.3,1.52-1.36,2.37-2.27,3.71c-1.63,2.41-4.72,4.31-7.7,4.32c-2.43,0.01-4.18-1.24-5.79-2.38c-5.99-4.28-8.85-11.91-8.85-11.91
	c-13.3,0.29-34.11,3.07-53.45,16.68c-14.43,10.16-34.88,31.17-29.49,44.29c3.09,7.51,12.83,11.58,14.51,12.22
	c2.28,0.87,11.84,4.53,16.34,0.34c3.32-3.09,0.83-7.6,1.7-17.36c0.44-4.91,1.35-16.37,8.85-23.83c6.03-6,13.29-6.98,24.51-8.51
	c8.26-1.12,18.57-2.53,23.49,3.06c1.63,1.85,2.11,3.83,5.11,6.13c0.85,0.65,4.87,3.73,9.19,3.4c5.81-0.43,5.79-6.53,11.91-9.53
	c7.05-3.46,11.89,2.26,29.28,2.72C411.5,259.06,415.12,259.16,415.85,257.51z"/>
<path class="st0" d="M364.45,273.34c-1.85,2.26,1.93,6.5,4.43,14.98c3.23,10.95-0.33,13.19,2.72,17.02c5.33,6.71,20.28,5,35.74,3.23
	c5.91-0.68,9.13-1.44,13.79,0c9.3,2.88,12.99,11.05,14.81,10.04c1.95-1.08-0.73-11.31-5.79-19.91c-2.32-3.95-6.35-10.64-14.3-15.66
	c-3.88-2.45-10.08-3.9-22.47-6.81c-7.03-1.65-1.18,0.07-20.26-3.06C368.22,272.36,365.63,271.89,364.45,273.34z"/>
<path class="st0" d="M331.51,347.55c0.03-2.66,4.26-2.79,12-8.94c7.01-5.57,10.09-10.66,14.55-9.79c1.25,0.24,2.04,0.84,2.55,1.19
	c7.23,4.84,21.84-0.2,24.68-1.11c14.81-4.71,34.49-0.65,46.72,8.09c11.34,8.1,15.84,20.05,18.13,26.13
	c2.9,7.71,5.42,14.4,2.55,17.62c-4.68,5.25-17.65-5.57-43.49-11.91c-20.64-5.07-35.67-3.79-64.17-12.85
	C340.95,354.68,331.47,351.54,331.51,347.55z"/>
<path class="st0" d="M287.51,368.49c-1.01-2.92-1.76-6.73,0.09-9.42c3.63-5.27,15.19-3.24,25.44-0.79
	c26.12,6.23,36.09,13.29,56.17,20.43c1.98,0.7,0.81,0.26,55.15,14.3c21.66,5.6,32.59,8.6,37.79,18.38
	c4.27,8.04,2.85,17.18,1.02,23.49"/>
<path class="st0" d="M280.36,383.81c2.29-4.18,20.18,2.05,73.53,21.45c76.02,27.64,103.31,38.13,103.15,52.09
	c-0.03,3.11-1.45,8.44-5.11,10.21c-6.49,3.15-17.02-6.39-21.45-10.21c-21.27-18.35-54.67-36.59-80.68-42.89
	c-24.27-5.89-36.93-0.14-55.15-13.28C287.35,395.9,278.53,387.15,280.36,383.81z"/>
<path class="st0" d="M281.72,418.53c-0.78-2.19-1.31-4.9,0-6.81c3.39-4.96,17.24-1.88,92.6,29.62
	c23.91,9.99,49.12,20.81,76.26,42.89c3.67,2.99,16.3,13.27,14.98,15.32c-1.66,2.58-24.56-9.08-62.64-28.6
	c-30.23-15.49-28.83-15.56-38.81-19.74c-19.82-8.31-29.77-9.9-53.79-19.74C297.8,426.33,287.88,421.59,281.72,418.53z"/>
<path class="st0" d="M274.81,439.36c-1.63,1.17-2.83,2.42-3.61,3.74c-0.93,1.58-1.21,3.48-0.87,5.28c0,0.02,0.01,0.03,0.01,0.05
	c0,0,0.56,3.42,3.21,6.53c5.69,6.66,99.01,30.72,139.57,63.32c0,0,8.03,6.46,49.36,24.85c2.21,0.98,7.33,2.86,12.6,1.36c0,0,0,0,0,0
	l-3.3-14.57c-0.5-2.22-1.9-4.12-3.86-5.27c-22.86-13.3-165.76-95.81-182.11-90.12C277.98,437.26,275.17,439.11,274.81,439.36z"/>
<path class="st0" d="M464.19,587.04c6.21,4.45,13.45,9.55,16,7.49c3.11-2.5-1.91-14.72-7.49-23.15c-6.27-9.48-13.67-14.83-15.32-16
	c-28.26-20.04-90.65-45-126.3-61.96c-30.55-14.54-54.34-28.33-59.91-21.79c-1.76,2.07-1.16,5.52-0.34,8.17
	c0.58,3.55,1.98,8.71,5.79,13.28c7.6,9.1,19.1,8.96,31.32,12.26c12.96,3.5,15.39,7.8,35.4,19.74c35.51,21.2,37.23,13.25,71.83,33.7
	C431.41,568.38,448.86,576.05,464.19,587.04z"/>
<path class="st0" d="M270.49,534.62c-4.68-7.21-6.4-19.72-2.31-22.37c2.1-1.36,5.3,0.18,6.9,0.92c14.09,6.49,15.97,1.95,36.94,9.87
	c27.46,10.38,59.57,31.56,98.38,50.72c39.39,19.45,58.03,23.18,68.09,44.6c4.56,9.72,7.31,22.97,2.72,26.21
	c-6.13,4.34-21.39-11.98-60.26-37.79c-14.21-9.44-24.87-15.69-36.43-22.47c-37.07-21.75-55.6-32.62-70.47-36.09
	C291.98,543.08,277.88,546.01,270.49,534.62z"/>
<path class="st0" d="M275.6,553.68c-3.49-0.3-13.17-1.13-16,3.74c-3,5.18,3.25,14.17,7.49,18.72c9.5,10.22,22.33,12.64,25.53,13.28
	c31.26,6.22,34.61,19.4,125.28,57.87c10.41,4.42,18.53,7.71,28.26,14.98c7.44,5.56,11.06,9.89,20.77,16
	c7.24,4.55,18.5,10.5,19.4,9.19c1.66-2.39-30.68-29.45-64-52.09c-27.52-18.69-53.84-33.08-74.89-44.6
	c-26.2-14.33-22.63-10.98-32-17.02C299.64,563.58,290.97,555,275.6,553.68z"/>
<path class="st0" d="M445.13,685.09c3.55,1.99,11.86,6.56,21.79,14.3c8.51,6.63,14.41,11.32,19.06,19.4
	c4.78,8.3,10.05,23.3,5.79,26.55c-6.8,5.19-29.44-26.39-81.36-59.57c-6.35-4.06-0.52-0.08-66.04-37.11
	c-30.96-17.5-33.23-18.94-40.51-21.45c-24.57-8.48-43.23-7.47-46.98-18.38c-1.53-4.46-0.59-11.07,3.4-14.64
	c8.45-7.56,27.06,4.17,89.53,35.06c28.56,14.13,34.15,16.36,48.68,24.85C420.63,667.04,422.38,672.33,445.13,685.09z"/>
<path class="st0" d="M253.13,618.36c-0.56,1.05,7.42,5.21,6.47,8.85c-0.47,1.79-2.59,1.92-7.15,4.43c-4.28,2.36-9.64,5.3-10.21,9.19
	c-0.53,3.6,2.81,7.18,5.45,8.85c3.15,1.99,5.79,1.56,10.55,2.04c1.71,0.17,3.21,0.42,14.64,3.74c24.51,7.13,36.8,10.6,42.89,12.94
	c20.87,8.01,35.23,17.53,48.68,26.55c33.94,22.77,32.86,30.84,70.81,57.53c17.96,12.63,19.03,11.41,38.47,25.53
	c13.63,9.9,18.76,14.61,21.11,12.94c3.89-2.78-1.63-21.95-14.64-35.06c-6.2-6.25-9.85-6.84-20.09-13.96
	c-13.53-9.41-20.34-17.56-28.26-25.53c-34.9-35.13-80.8-56.11-89.87-60.26c-5.72-2.61-9.63-4.15-24.51-10.89
	c-13.14-5.95-26.33-11.79-39.49-17.7C272.52,625.1,253.98,616.78,253.13,618.36z"/>
<path class="st0" d="M241.55,658.53c-5.18,4.85-6.22,16.41-1.7,21.79c4.96,5.89,16.19,3.87,19.4,3.4
	c22.31-3.24,47.51,11.79,95.66,40.51c54.67,32.61,103.15,71.15,103.15,71.15c15.61,12.41,41.19,33.59,44.94,29.96
	c0.95-0.92,0.18-3.1-0.68-5.45c-4.29-11.73-14.22-14.78-29.96-28.26c-7.41-6.34-6.27-6.58-12.94-11.91
	c-10.94-8.76-20.47-13.31-23.15-14.64c-21.85-10.84-51.97-37.75-91.57-63.66C316.25,682.81,257.01,644.06,241.55,658.53z"/>
<path class="st0" d="M233.04,698.02c-6.58,6.34-8.39,18.76-4.09,24.17c5.15,6.47,17.21,0.63,37.79,3.06
	c8.89,1.05,14.84,3.11,31.32,9.53c37.22,14.5,55.82,21.76,68.09,27.91c34.55,17.35,58.92,29.92,78.64,55.83
	c3.33,4.38,6.08,8.59,11.57,17.02c24.58,37.7,30.66,57.31,36.77,56.17c4.92-0.92,8.46-15.04,6.81-28.26
	c-2.77-22.16-19.5-36.51-63.66-69.79c-37.49-28.25-56.23-42.38-65.36-48C343.43,728.76,256.62,675.31,233.04,698.02z"/>
<path class="st0" d="M326.32,123.38c2.69-2.93,11.81,2.78,24.51,8.17c26.22,11.13,32.84,6.09,45.45,15.32
	c7.14,5.23,8.58,9.46,19.4,28.09c21.39,36.82,25.09,35.29,34.21,54.64c10.27,21.78,14.35,39.02,19.4,60.26
	c27.19,114.19,25.37,102.89,27.57,114.89c13.7,74.51,1.4,80.13,15.83,157.79c5.09,27.39,8.47,37.42,13.28,69.96
	c5.91,40,7.56,70.61,8.68,92.43c2.71,52.83-1.24,46.25,0,120.51c0.93,55.9,3.49,78.91-9.7,111.32
	c-8.03,19.72-20.93,40.54-26.04,38.81c-7.57-2.57,10.48-51.74,12.77-129.7c0.85-28.95-1.57-24.48-4.09-93.45
	c-2.93-80.38,0.2-91-3.06-131.74c-4.07-50.81-10.26-50.95-22.98-126.64c-15.42-91.77-10.85-118.54-30.13-210.38
	c-4.52-21.55-14.77-67.69-44.43-106.72c-15.91-20.94-23.86-31.41-37.28-38.3c-15.58-8.01-34.03-10.48-41.87-26.04
	C327.13,131.15,324.32,125.56,326.32,123.38z"/>
</svg>
